<svg data-v-fde0c5aa="" xmlns="http://www.w3.org/2000/svg" viewBox="0 0 300 300" class="iconLeft"><!----><defs data-v-fde0c5aa=""><!----></defs><rect data-v-fde0c5aa="" fill="transparent" x="0" y="0" width="300px" height="300px" class="logo-background-square"></rect><defs data-v-fde0c5aa=""><!----></defs><g data-v-fde0c5aa="" id="e0173c60-bea9-41aa-8d47-bb654b003d86" fill="#000000" transform="matrix(3.129104960972783,0,0,3.129104960972783,87.46115193719535,120.68028687378266)"><path d="M6.47 12.44L6.47 12.44L6.47 12.44Q6.47 13.10 6.33 13.52L6.33 13.52L6.33 13.52Q6.19 13.94 5.85 14.18L5.85 14.18L5.85 14.18Q5.52 14.43 5.05 14.53L5.05 14.53L5.05 14.53Q4.57 14.62 3.85 14.62L3.85 14.62L3.85 14.62Q3.42 14.62 3.17 14.62L3.17 14.62L3.17 14.62Q2.91 14.61 2.58 14.58L2.58 14.58L2.58 14.58Q2.24 14.55 2.04 14.50L2.04 14.50L2.04 14.50Q1.85 14.44 1.62 14.34L1.62 14.34L1.62 14.34Q1.39 14.24 1.26 14.09L1.26 14.09L1.26 14.09Q1.13 13.93 1.01 13.72L1.01 13.72L1.01 13.72Q0.90 13.51 0.85 13.22L0.85 13.22L0.85 13.22Q0.80 12.93 0.80 12.56L0.80 12.56L1.86 12.28L1.86 12.28Q1.92 13.06 2.00 13.27L2.00 13.27L2.00 13.27Q2.13 13.55 2.52 13.62L2.52 13.62L2.52 13.62Q2.81 13.69 3.75 13.69L3.75 13.69L3.75 13.69Q4.32 13.69 4.60 13.63L4.60 13.63L4.60 13.63Q4.87 13.58 4.97 13.44L4.97 13.44L4.97 13.44Q5.24 13.21 5.24 11.90L5.24 11.90L5.24 11.90Q5.24 11.70 5.16 11.56L5.16 11.56L5.16 11.56Q5.08 11.42 4.96 11.35L4.96 11.35L4.96 11.35Q4.85 11.28 4.64 11.23L4.64 11.23L4.64 11.23Q4.43 11.18 4.26 11.16L4.26 11.16L4.26 11.16Q4.09 11.14 3.82 11.12L3.82 11.12L3.82 11.12Q3.55 11.09 3.38 11.07L3.38 11.07L3.38 11.07Q2.88 11.01 2.57 10.96L2.57 10.96L2.57 10.96Q2.26 10.91 1.93 10.81L1.93 10.81L1.93 10.81Q1.61 10.71 1.43 10.55L1.43 10.55L1.43 10.55Q1.25 10.40 1.10 10.17L1.10 10.17L1.10 10.17Q0.95 9.93 0.89 9.59L0.89 9.59L0.89 9.59Q0.83 9.26 0.83 8.79L0.83 8.79L0.83 8.79Q0.83 8.30 0.93 7.96L0.93 7.96L0.93 7.96Q1.03 7.62 1.23 7.39L1.23 7.39L1.23 7.39Q1.43 7.16 1.77 7.04L1.77 7.04L1.77 7.04Q2.12 6.91 2.55 6.86L2.55 6.86L2.55 6.86Q2.98 6.81 3.60 6.81L3.60 6.81L3.60 6.81Q3.99 6.81 4.24 6.82L4.24 6.82L4.24 6.82Q4.49 6.83 4.79 6.87L4.79 6.87L4.79 6.87Q5.09 6.90 5.27 6.97L5.27 6.97L5.27 6.97Q5.46 7.04 5.64 7.16L5.64 7.16L5.64 7.16Q5.83 7.29 5.93 7.47L5.93 7.47L5.93 7.47Q6.04 7.65 6.10 7.91L6.10 7.91L6.10 7.91Q6.17 8.17 6.17 8.50L6.17 8.50L5.25 8.78L5.25 8.78Q5.22 8.52 5.20 8.36L5.20 8.36L5.20 8.36Q5.17 8.21 5.09 8.08L5.09 8.08L5.09 8.08Q5.01 7.95 4.92 7.90L4.92 7.90L4.92 7.90Q4.83 7.84 4.62 7.80L4.62 7.80L4.62 7.80Q4.40 7.76 4.18 7.75L4.18 7.75L4.18 7.75Q3.96 7.75 3.55 7.75L3.55 7.75L3.55 7.75Q2.68 7.75 2.37 7.92L2.37 7.92L2.37 7.92Q2.06 8.09 2.06 8.49L2.06 8.49L2.06 9.19L2.06 9.19Q2.06 9.64 2.33 9.76L2.33 9.76L2.33 9.76Q2.60 9.88 3.77 10.03L3.77 10.03L3.77 10.03Q3.90 10.05 3.96 10.06L3.96 10.06L3.96 10.06Q4.43 10.11 4.71 10.16L4.71 10.16L4.71 10.16Q4.98 10.21 5.29 10.28L5.29 10.28L5.29 10.28Q5.60 10.36 5.76 10.47L5.76 10.47L5.76 10.47Q5.92 10.58 6.08 10.74L6.08 10.74L6.08 10.74Q6.24 10.90 6.31 11.14L6.31 11.14L6.31 11.14Q6.38 11.38 6.43 11.70L6.43 11.70L6.43 11.70Q6.47 12.01 6.47 12.44ZM13.67 9.56L13.67 14.52L12.61 14.52L12.39 13.45L12.39 13.45Q12.18 14.15 11.65 14.39L11.65 14.39L11.65 14.39Q11.11 14.62 10.08 14.62L10.08 14.62L10.08 14.62Q9.39 14.62 8.96 14.49L8.96 14.49L8.96 14.49Q8.52 14.36 8.26 14.04L8.26 14.04L8.26 14.04Q8.00 13.73 7.90 13.27L7.90 13.27L7.90 13.27Q7.80 12.82 7.80 12.10L7.80 12.10L7.80 12.10Q7.80 11.78 7.91 11.53L7.91 11.53L7.91 11.53Q8.03 11.27 8.22 11.09L8.22 11.09L8.22 11.09Q8.42 10.92 8.74 10.79L8.74 10.79L8.74 10.79Q9.06 10.66 9.41 10.58L9.41 10.58L9.41 10.58Q9.76 10.51 10.26 10.46L10.26 10.46L10.26 10.46Q10.75 10.42 11.22 10.40L11.22 10.40L11.22 10.40Q11.70 10.39 12.33 10.39L12.33 10.39L12.33 8.36L12.33 8.36Q12.33 8.01 12.00 7.88L12.00 7.88L12.00 7.88Q11.67 7.75 10.83 7.75L10.83 7.75L10.83 7.75Q10.24 7.75 9.95 7.77L9.95 7.77L9.95 7.77Q9.65 7.80 9.50 7.93L9.50 7.93L9.50 7.93Q9.34 8.07 9.32 8.20L9.32 8.20L9.32 8.20Q9.30 8.33 9.29 8.68L9.29 8.68L9.29 8.68Q9.28 8.81 9.28 8.89L9.28 8.89L8.24 8.85L8.24 8.85Q8.22 8.74 8.22 8.52L8.22 8.52L8.22 8.52Q8.22 8.07 8.36 7.75L8.36 7.75L8.36 7.75Q8.49 7.43 8.70 7.25L8.70 7.25L8.70 7.25Q8.91 7.07 9.28 6.97L9.28 6.97L9.28 6.97Q9.65 6.86 10.01 6.84L10.01 6.84L10.01 6.84Q10.38 6.81 10.92 6.81L10.92 6.81L10.92 6.81Q11.74 6.81 12.25 6.94L12.25 6.94L12.25 6.94Q12.76 7.06 13.09 7.39L13.09 7.39L13.09 7.39Q13.42 7.72 13.55 8.23L13.55 8.23L13.55 8.23Q13.67 8.74 13.67 9.56L13.67 9.56ZM12.33 12.37L12.33 12.37L12.33 11.20L12.33 11.20Q10.98 11.20 10.25 11.31L10.25 11.31L10.25 11.31Q9.53 11.41 9.29 11.59L9.29 11.59L9.29 11.59Q9.04 11.77 9.04 12.10L9.04 12.10L9.04 12.10Q9.04 12.11 9.04 12.14L9.04 12.14L9.04 12.14Q9.04 13.18 9.21 13.43L9.21 13.43L9.21 13.43Q9.39 13.69 10.26 13.69L10.26 13.69L10.26 13.69Q11.01 13.69 11.47 13.51L11.47 13.51L11.47 13.51Q11.94 13.33 12.12 13.05L12.12 13.05L12.12 13.05Q12.30 12.78 12.33 12.37ZM18.76 4.23L18.76 4.23L18.76 5.21L18.76 5.21Q18.40 5.19 18.05 5.19L18.05 5.19L18.05 5.19Q17.63 5.19 17.54 5.23L17.54 5.23L17.54 5.23Q17.39 5.30 17.37 5.69L17.37 5.69L17.37 5.69Q17.36 5.83 17.36 6.08L17.36 6.08L17.36 6.08Q17.36 6.18 17.37 6.49L17.37 6.49L17.37 6.49Q17.37 6.80 17.37 7.02L17.37 7.02L18.72 7.02L18.72 7.79L17.37 7.79L17.37 14.52L16.02 14.52L16.02 7.79L15.14 7.79L15.14 7.02L16.02 7.02L16.02 7.02Q16.02 6.64 16.03 6.41L16.03 6.41L16.03 6.41Q16.03 6.17 16.04 5.89L16.04 5.89L16.04 5.89Q16.06 5.60 16.08 5.43L16.08 5.43L16.08 5.43Q16.10 5.26 16.14 5.06L16.14 5.06L16.14 5.06Q16.19 4.86 16.25 4.75L16.25 4.75L16.25 4.75Q16.30 4.63 16.39 4.51L16.39 4.51L16.39 4.51Q16.48 4.39 16.59 4.33L16.59 4.33L16.59 4.33Q16.71 4.27 16.86 4.21L16.86 4.21L16.86 4.21Q17.01 4.16 17.19 4.14L17.19 4.14L17.19 4.14Q17.37 4.12 17.60 4.12L17.60 4.12L17.60 4.12Q18.16 4.12 18.76 4.23ZM25.98 10.66L25.98 10.66L25.98 10.66Q25.16 10.75 24.96 10.76L24.96 10.76L21.23 10.76L21.23 10.76Q21.24 11.75 21.29 12.93L21.29 12.93L21.29 12.93Q21.32 13.39 21.68 13.54L21.68 13.54L21.68 13.54Q22.04 13.69 23.08 13.69L23.08 13.69L23.08 13.69Q23.47 13.69 23.75 13.65L23.75 13.65L23.75 13.65Q24.03 13.62 24.20 13.55L24.20 13.55L24.20 13.55Q24.38 13.47 24.48 13.40L24.48 13.40L24.48 13.40Q24.58 13.32 24.62 13.17L24.62 13.17L24.62 13.17Q24.67 13.02 24.68 12.91L24.68 12.91L24.68 12.91Q24.70 12.80 24.71 12.59L24.71 12.59L24.71 12.59Q24.73 12.37 24.75 12.24L24.75 12.24L25.79 12.43L25.79 12.43Q25.78 12.91 25.72 13.24L25.72 13.24L25.72 13.24Q25.67 13.57 25.54 13.82L25.54 13.82L25.54 13.82Q25.41 14.08 25.23 14.22L25.23 14.22L25.23 14.22Q25.05 14.37 24.75 14.46L24.75 14.46L24.75 14.46Q24.45 14.56 24.09 14.59L24.09 14.59L24.09 14.59Q23.73 14.62 23.19 14.62L23.19 14.62L23.19 14.62Q22.51 14.62 22.00 14.54L22.00 14.54L22.00 14.54Q21.50 14.46 21.14 14.35L21.14 14.35L21.14 14.35Q20.78 14.23 20.55 13.97L20.55 13.97L20.55 13.97Q20.32 13.71 20.18 13.47L20.18 13.47L20.18 13.47Q20.05 13.23 19.99 12.76L19.99 12.76L19.99 12.76Q19.93 12.30 19.91 11.92L19.91 11.92L19.91 11.92Q19.89 11.54 19.89 10.87L19.89 10.87L19.89 10.87Q19.89 9.93 19.92 9.40L19.92 9.40L19.92 9.40Q19.94 8.87 20.05 8.34L20.05 8.34L20.05 8.34Q20.16 7.81 20.34 7.57L20.34 7.57L20.34 7.57Q20.53 7.33 20.89 7.13L20.89 7.13L20.89 7.13Q21.25 6.92 21.75 6.87L21.75 6.87L21.75 6.87Q22.24 6.81 23.00 6.81L23.00 6.81L23.00 6.81Q23.52 6.81 23.91 6.84L23.91 6.84L23.91 6.84Q24.29 6.87 24.61 6.97L24.61 6.97L24.61 6.97Q24.93 7.06 25.14 7.18L25.14 7.18L25.14 7.18Q25.35 7.31 25.51 7.55L25.51 7.55L25.51 7.55Q25.67 7.79 25.75 8.04L25.75 8.04L25.75 8.04Q25.84 8.30 25.89 8.72L25.89 8.72L25.89 8.72Q25.95 9.15 25.96 9.58L25.96 9.58L25.96 9.58Q25.98 10.01 25.98 10.66ZM21.24 10.04L21.24 10.04L24.63 10.04L24.63 10.04Q24.62 9.17 24.56 8.44L24.56 8.44L24.56 8.44Q24.53 8.03 24.20 7.89L24.20 7.89L24.20 7.89Q23.87 7.75 22.99 7.75L22.99 7.75L22.99 7.75Q22.01 7.75 21.75 7.85L21.75 7.85L21.75 7.85Q21.64 7.89 21.55 7.97L21.55 7.97L21.55 7.97Q21.46 8.06 21.41 8.22L21.41 8.22L21.41 8.22Q21.36 8.37 21.32 8.51L21.32 8.51L21.32 8.51Q21.29 8.65 21.28 8.89L21.28 8.89L21.28 8.89Q21.26 9.13 21.25 9.27L21.25 9.27L21.25 9.27Q21.25 9.40 21.24 9.67L21.24 9.67L21.24 9.67Q21.24 9.95 21.24 10.04ZM33.22 12.44L33.22 12.44L33.22 12.44Q33.22 13.10 33.08 13.52L33.08 13.52L33.08 13.52Q32.94 13.94 32.60 14.18L32.60 14.18L32.60 14.18Q32.27 14.43 31.80 14.53L31.80 14.53L31.80 14.53Q31.32 14.62 30.60 14.62L30.60 14.62L30.60 14.62Q30.17 14.62 29.92 14.62L29.92 14.62L29.92 14.62Q29.66 14.61 29.33 14.58L29.33 14.58L29.33 14.58Q28.99 14.55 28.79 14.50L28.79 14.50L28.79 14.50Q28.59 14.44 28.37 14.34L28.37 14.34L28.37 14.34Q28.14 14.24 28.01 14.09L28.01 14.09L28.01 14.09Q27.88 13.93 27.76 13.72L27.76 13.72L27.76 13.72Q27.64 13.51 27.60 13.22L27.60 13.22L27.60 13.22Q27.55 12.93 27.55 12.56L27.55 12.56L28.61 12.28L28.61 12.28Q28.67 13.06 28.75 13.27L28.75 13.27L28.75 13.27Q28.88 13.55 29.26 13.62L29.26 13.62L29.26 13.62Q29.56 13.69 30.50 13.69L30.50 13.69L30.50 13.69Q31.07 13.69 31.35 13.63L31.35 13.63L31.35 13.63Q31.62 13.58 31.72 13.44L31.72 13.44L31.72 13.44Q31.99 13.21 31.99 11.90L31.99 11.90L31.99 11.90Q31.99 11.70 31.91 11.56L31.91 11.56L31.91 11.56Q31.83 11.42 31.71 11.35L31.71 11.35L31.71 11.35Q31.60 11.28 31.39 11.23L31.39 11.23L31.39 11.23Q31.18 11.18 31.01 11.16L31.01 11.16L31.01 11.16Q30.84 11.14 30.57 11.12L30.57 11.12L30.57 11.12Q30.30 11.09 30.13 11.07L30.13 11.07L30.13 11.07Q29.63 11.01 29.32 10.96L29.32 10.96L29.32 10.96Q29.00 10.91 28.68 10.81L28.68 10.81L28.68 10.81Q28.36 10.71 28.18 10.55L28.18 10.55L28.18 10.55Q28 10.40 27.85 10.17L27.85 10.17L27.85 10.17Q27.70 9.93 27.64 9.59L27.64 9.59L27.64 9.59Q27.58 9.26 27.58 8.79L27.58 8.79L27.58 8.79Q27.58 8.30 27.68 7.96L27.68 7.96L27.68 7.96Q27.78 7.62 27.98 7.39L27.98 7.39L27.98 7.39Q28.18 7.16 28.52 7.04L28.52 7.04L28.52 7.04Q28.87 6.91 29.30 6.86L29.30 6.86L29.30 6.86Q29.73 6.81 30.35 6.81L30.35 6.81L30.35 6.81Q30.74 6.81 30.99 6.82L30.99 6.82L30.99 6.82Q31.24 6.83 31.54 6.87L31.54 6.87L31.54 6.87Q31.83 6.90 32.02 6.97L32.02 6.97L32.02 6.97Q32.20 7.04 32.39 7.16L32.39 7.16L32.39 7.16Q32.58 7.29 32.68 7.47L32.68 7.47L32.68 7.47Q32.79 7.65 32.85 7.91L32.85 7.91L32.85 7.91Q32.92 8.17 32.92 8.50L32.92 8.50L32.00 8.78L32.00 8.78Q31.97 8.52 31.95 8.36L31.95 8.36L31.95 8.36Q31.92 8.21 31.84 8.08L31.84 8.08L31.84 8.08Q31.76 7.95 31.67 7.90L31.67 7.90L31.67 7.90Q31.58 7.84 31.37 7.80L31.37 7.80L31.37 7.80Q31.15 7.76 30.93 7.75L30.93 7.75L30.93 7.75Q30.71 7.75 30.30 7.75L30.30 7.75L30.30 7.75Q29.43 7.75 29.12 7.92L29.12 7.92L29.12 7.92Q28.81 8.09 28.81 8.49L28.81 8.49L28.81 9.19L28.81 9.19Q28.81 9.64 29.08 9.76L29.08 9.76L29.08 9.76Q29.35 9.88 30.52 10.03L30.52 10.03L30.52 10.03Q30.65 10.05 30.71 10.06L30.71 10.06L30.71 10.06Q31.18 10.11 31.46 10.16L31.46 10.16L31.46 10.16Q31.73 10.21 32.04 10.28L32.04 10.28L32.04 10.28Q32.35 10.36 32.51 10.47L32.51 10.47L32.51 10.47Q32.67 10.58 32.83 10.74L32.83 10.74L32.83 10.74Q32.99 10.90 33.06 11.14L33.06 11.14L33.06 11.14Q33.13 11.38 33.18 11.70L33.18 11.70L33.18 11.70Q33.22 12.01 33.22 12.44ZM40.42 9.56L40.42 14.52L39.35 14.52L39.14 13.45L39.14 13.45Q38.93 14.15 38.39 14.39L38.39 14.39L38.39 14.39Q37.86 14.62 36.83 14.62L36.83 14.62L36.83 14.62Q36.14 14.62 35.70 14.49L35.70 14.49L35.70 14.49Q35.27 14.36 35.01 14.04L35.01 14.04L35.01 14.04Q34.75 13.73 34.65 13.27L34.65 13.27L34.65 13.27Q34.55 12.82 34.55 12.10L34.55 12.10L34.55 12.10Q34.55 11.78 34.66 11.53L34.66 11.53L34.66 11.53Q34.77 11.27 34.97 11.09L34.97 11.09L34.97 11.09Q35.16 10.92 35.49 10.79L35.49 10.79L35.49 10.79Q35.81 10.66 36.16 10.58L36.16 10.58L36.16 10.58Q36.51 10.51 37.01 10.46L37.01 10.46L37.01 10.46Q37.50 10.42 37.97 10.40L37.97 10.40L37.97 10.40Q38.45 10.39 39.07 10.39L39.07 10.39L39.07 8.36L39.07 8.36Q39.07 8.01 38.75 7.88L38.75 7.88L38.75 7.88Q38.42 7.75 37.58 7.75L37.58 7.75L37.58 7.75Q36.99 7.75 36.70 7.77L36.70 7.77L36.70 7.77Q36.40 7.80 36.25 7.93L36.25 7.93L36.25 7.93Q36.09 8.07 36.07 8.20L36.07 8.20L36.07 8.20Q36.05 8.33 36.04 8.68L36.04 8.68L36.04 8.68Q36.03 8.81 36.03 8.89L36.03 8.89L34.99 8.85L34.99 8.85Q34.97 8.74 34.97 8.52L34.97 8.52L34.97 8.52Q34.97 8.07 35.11 7.75L35.11 7.75L35.11 7.75Q35.24 7.43 35.45 7.25L35.45 7.25L35.45 7.25Q35.66 7.07 36.03 6.97L36.03 6.97L36.03 6.97Q36.40 6.86 36.76 6.84L36.76 6.84L36.76 6.84Q37.13 6.81 37.67 6.81L37.67 6.81L37.67 6.81Q38.49 6.81 39.00 6.94L39.00 6.94L39.00 6.94Q39.51 7.06 39.84 7.39L39.84 7.39L39.84 7.39Q40.17 7.72 40.29 8.23L40.29 8.23L40.29 8.23Q40.42 8.74 40.42 9.56L40.42 9.56ZM39.07 12.37L39.07 12.37L39.07 11.20L39.07 11.20Q37.73 11.20 37.00 11.31L37.00 11.31L37.00 11.31Q36.28 11.41 36.04 11.59L36.04 11.59L36.04 11.59Q35.79 11.77 35.79 12.10L35.79 12.10L35.79 12.10Q35.79 12.11 35.79 12.14L35.79 12.14L35.79 12.14Q35.79 13.18 35.96 13.43L35.96 13.43L35.96 13.43Q36.13 13.69 37.01 13.69L37.01 13.69L37.01 13.69Q37.75 13.69 38.22 13.51L38.22 13.51L38.22 13.51Q38.68 13.33 38.87 13.05L38.87 13.05L38.87 13.05Q39.05 12.78 39.07 12.37ZM46.57 7.02L47.95 7.02L45.47 14.52L44.01 14.52L41.65 7.02L42.92 7.02L44.75 13.35L46.57 7.02ZM55.14 10.66L55.14 10.66L55.14 10.66Q54.32 10.75 54.12 10.76L54.12 10.76L50.39 10.76L50.39 10.76Q50.40 11.75 50.45 12.93L50.45 12.93L50.45 12.93Q50.48 13.39 50.84 13.54L50.84 13.54L50.84 13.54Q51.20 13.69 52.24 13.69L52.24 13.69L52.24 13.69Q52.63 13.69 52.91 13.65L52.91 13.65L52.91 13.65Q53.19 13.62 53.36 13.55L53.36 13.55L53.36 13.55Q53.54 13.47 53.64 13.40L53.64 13.40L53.64 13.40Q53.74 13.32 53.79 13.17L53.79 13.17L53.79 13.17Q53.83 13.02 53.85 12.91L53.85 12.91L53.85 12.91Q53.86 12.80 53.87 12.59L53.87 12.59L53.87 12.59Q53.89 12.37 53.91 12.24L53.91 12.24L54.95 12.43L54.95 12.43Q54.94 12.91 54.89 13.24L54.89 13.24L54.89 13.24Q54.83 13.57 54.70 13.82L54.70 13.82L54.70 13.82Q54.57 14.08 54.39 14.22L54.39 14.22L54.39 14.22Q54.22 14.37 53.92 14.46L53.92 14.46L53.92 14.46Q53.61 14.56 53.25 14.59L53.25 14.59L53.25 14.59Q52.89 14.62 52.36 14.62L52.36 14.62L52.36 14.62Q51.67 14.62 51.17 14.54L51.17 14.54L51.17 14.54Q50.66 14.46 50.30 14.35L50.30 14.35L50.30 14.35Q49.94 14.23 49.71 13.97L49.71 13.97L49.71 13.97Q49.48 13.71 49.35 13.47L49.35 13.47L49.35 13.47Q49.21 13.23 49.15 12.76L49.15 12.76L49.15 12.76Q49.09 12.30 49.07 11.92L49.07 11.92L49.07 11.92Q49.05 11.54 49.05 10.87L49.05 10.87L49.05 10.87Q49.05 9.93 49.08 9.40L49.08 9.40L49.08 9.40Q49.10 8.87 49.21 8.34L49.21 8.34L49.21 8.34Q49.32 7.81 49.51 7.57L49.51 7.57L49.51 7.57Q49.69 7.33 50.05 7.13L50.05 7.13L50.05 7.13Q50.42 6.92 50.91 6.87L50.91 6.87L50.91 6.87Q51.40 6.81 52.16 6.81L52.16 6.81L52.16 6.81Q52.68 6.81 53.07 6.84L53.07 6.84L53.07 6.84Q53.45 6.87 53.77 6.97L53.77 6.97L53.77 6.97Q54.09 7.06 54.30 7.18L54.30 7.18L54.30 7.18Q54.51 7.31 54.67 7.55L54.67 7.55L54.67 7.55Q54.83 7.79 54.92 8.04L54.92 8.04L54.92 8.04Q55.00 8.30 55.06 8.72L55.06 8.72L55.06 8.72Q55.11 9.15 55.13 9.58L55.13 9.58L55.13 9.58Q55.14 10.01 55.14 10.66ZM50.40 10.04L50.40 10.04L53.79 10.04L53.79 10.04Q53.78 9.17 53.72 8.44L53.72 8.44L53.72 8.44Q53.70 8.03 53.36 7.89L53.36 7.89L53.36 7.89Q53.03 7.75 52.15 7.75L52.15 7.75L52.15 7.75Q51.17 7.75 50.91 7.85L50.91 7.85L50.91 7.85Q50.80 7.89 50.71 7.97L50.71 7.97L50.71 7.97Q50.63 8.06 50.57 8.22L50.57 8.22L50.57 8.22Q50.52 8.37 50.49 8.51L50.49 8.51L50.49 8.51Q50.46 8.65 50.44 8.89L50.44 8.89L50.44 8.89Q50.42 9.13 50.42 9.27L50.42 9.27L50.42 9.27Q50.41 9.40 50.40 9.67L50.40 9.67L50.40 9.67Q50.40 9.95 50.40 10.04Z"></path></g><defs data-v-fde0c5aa=""><linearGradient data-v-fde0c5aa="" gradientTransform="rotate(25)" id="4b383bd5-915c-44e6-8e07-78d99b18a912" x1="0%" y1="0%" x2="100%" y2="0%"><stop data-v-fde0c5aa="" offset="0%" stop-color="#021802" stop-opacity="1"></stop><stop data-v-fde0c5aa="" offset="100%" stop-color="#60DBCC" stop-opacity="1"></stop></linearGradient></defs><g data-v-fde0c5aa="" id="59d06d3e-ddfd-45cb-9dc3-cf746f0095bc" stroke="none" fill="url(#4b383bd5-915c-44e6-8e07-78d99b18a912)" transform="matrix(0.6848436681475484,0,0,0.6848436681475484,24.23900786305186,115.75747566512207)"><path d="M71.889 38.007c.062-.66.101-1.324.101-2 0-12.125-9.863-21.988-21.989-21.988s-21.988 9.863-21.988 21.988c0 .676.042 1.34.103 2h-5.102v47.975h53.975V38.007h-5.1zm-19.39 24.127v9.857h-4.998v-9.857c-1.488-.863-2.498-2.46-2.498-4.303a4.998 4.998 0 1 1 9.994 0c0 1.843-1.011 3.44-2.498 4.303zm11.335-24.127H36.166a14.505 14.505 0 0 1-.157-2c0-7.713 6.277-13.99 13.991-13.99 7.718 0 13.995 6.277 13.995 13.99 0 .68-.071 1.344-.161 2z"></path></g><!----></svg>